<svg width="24" height="25" viewBox="0 0 24 25" fill="none" xmlns="http://www.w3.org/2000/svg">
<g clip-path="url(#clip0_182_3713)">
<path d="M12 22.5C6.477 22.5 2 18.023 2 12.5C2 6.977 6.477 2.5 12 2.5C17.523 2.5 22 6.977 22 12.5C22 18.023 17.523 22.5 12 22.5ZM10.622 8.915C10.5618 8.87485 10.4919 8.85177 10.4196 8.84822C10.3473 8.84467 10.2755 8.86079 10.2116 8.89486C10.1478 8.92893 10.0944 8.97967 10.0572 9.04168C10.0199 9.10369 10.0001 9.17465 10 9.247V15.753C10.0001 15.8253 10.0199 15.8963 10.0572 15.9583C10.0944 16.0203 10.1478 16.0711 10.2116 16.1051C10.2755 16.1392 10.3473 16.1553 10.4196 16.1518C10.4919 16.1482 10.5618 16.1252 10.622 16.085L15.501 12.833C15.5559 12.7965 15.6009 12.747 15.632 12.6889C15.6631 12.6308 15.6794 12.5659 15.6794 12.5C15.6794 12.4341 15.6631 12.3692 15.632 12.3111C15.6009 12.253 15.5559 12.2035 15.501 12.167L10.621 8.915H10.622Z" fill="#03053D"/>
</g>
<defs>
<clipPath id="clip0_182_3713">
<rect width="24" height="24" fill="white" transform="translate(0 0.5)"/>
</clipPath>
</defs>
</svg>
