<svg width="20" height="20" viewBox="0 0 20 20" fill="none" xmlns="http://www.w3.org/2000/svg">
<g clip-path="url(#clip0_317_1516)">
<path d="M9.08256 1.75L17.3317 2.92917L18.5101 11.1792L10.8501 18.8392C10.6938 18.9954 10.4819 19.0832 10.2609 19.0832C10.0399 19.0832 9.828 18.9954 9.67172 18.8392L1.42172 10.5892C1.2655 10.4329 1.17773 10.221 1.17773 10C1.17773 9.77903 1.2655 9.56711 1.42172 9.41083L9.08256 1.75ZM11.4392 8.82167C11.594 8.97641 11.7778 9.09914 11.98 9.18287C12.1822 9.26659 12.399 9.30967 12.6179 9.30963C12.8367 9.30959 13.0535 9.26644 13.2557 9.18264C13.4579 9.09885 13.6416 8.97605 13.7963 8.82125C13.951 8.66645 14.0738 8.4827 14.1575 8.28047C14.2412 8.07824 14.2843 7.8615 14.2843 7.64262C14.2842 7.42375 14.2411 7.20702 14.1573 7.00482C14.0735 6.80262 13.9507 6.61891 13.7959 6.46417C13.6411 6.30943 13.4573 6.18669 13.2551 6.10296C13.0529 6.01924 12.8361 5.97617 12.6173 5.97621C12.1752 5.97629 11.7513 6.15196 11.4388 6.46458C11.1263 6.77721 10.9508 7.20117 10.9508 7.64321C10.9509 8.08525 11.1266 8.50915 11.4392 8.82167Z" fill="white"/>
</g>
<defs>
<clipPath id="clip0_317_1516">
<rect width="20" height="20" fill="white"/>
</clipPath>
</defs>
</svg>
