<svg width="20" height="21" viewBox="0 0 20 21" fill="none" xmlns="http://www.w3.org/2000/svg">
<g clip-path="url(#clip0_814_5490)">
<path d="M9.08451 2.25L17.3337 3.42917L18.512 11.6792L10.852 19.3392C10.6957 19.4954 10.4838 19.5832 10.2628 19.5832C10.0419 19.5832 9.82995 19.4954 9.67368 19.3392L1.42368 11.0892C1.26745 10.9329 1.17969 10.721 1.17969 10.5C1.17969 10.279 1.26745 10.0671 1.42368 9.91083L9.08451 2.25ZM11.4412 9.32167C11.596 9.47641 11.7797 9.59914 11.982 9.68287C12.1842 9.76659 12.4009 9.80967 12.6198 9.80963C12.8387 9.80959 13.0554 9.76644 13.2576 9.68264C13.4598 9.59885 13.6435 9.47605 13.7983 9.32125C13.953 9.16645 14.0757 8.9827 14.1595 8.78047C14.2432 8.57824 14.2863 8.3615 14.2862 8.14262C14.2862 7.92375 14.243 7.70702 14.1592 7.50482C14.0754 7.30262 13.9526 7.11891 13.7978 6.96417C13.643 6.80943 13.4593 6.68669 13.2571 6.60296C13.0548 6.51924 12.8381 6.47617 12.6192 6.47621C12.1772 6.47629 11.7533 6.65196 11.4408 6.96458C11.1282 7.27721 10.9527 7.70117 10.9528 8.14321C10.9529 8.58525 11.1286 9.00915 11.4412 9.32167Z" fill="white"/>
</g>
<defs>
<clipPath id="clip0_814_5490">
<rect width="20" height="20" fill="white" transform="translate(0 0.5)"/>
</clipPath>
</defs>
</svg>
